<svg xmlns="http://www.w3.org/2000/svg" width="24" height="24.001" viewBox="0 0 24 24.001">
  <g id="Group_17" data-name="Group 17" transform="translate(-24 -78.999)">
    <path id="Path" d="M3.75,13.25A.25.25,0,0,0,4,13V1A1,1,0,0,0,3,0H1A1,1,0,0,0,0,1V13a.25.25,0,0,0,.25.25Z" transform="translate(43 86.5)" fill="#4b456e"/>
    <path id="Path-2" data-name="Path" d="M2,13.5a1.979,1.979,0,0,0,1.9-2.6l3.167-2.64A1.955,1.955,0,0,0,9.511,7.8l2.5.834A2,2,0,0,0,16,8.5a1.964,1.964,0,0,0-.231-.912l3.287-3.835A1.994,1.994,0,1,0,18,2a1.962,1.962,0,0,0,.093.571L14.63,6.613a1.932,1.932,0,0,0-2.141.593l-2.5-.833A2,2,0,1,0,6.1,7.1L2.936,9.745A1.975,1.975,0,0,0,2,9.5a2,2,0,0,0,0,4Z" transform="translate(25.5 78.999)" fill="#4b456e"/>
    <path id="Path-3" data-name="Path" d="M23,0H1A1.016,1.016,0,0,0,0,1,1,1,0,0,0,1,2H23a1,1,0,0,0,1-1A1.015,1.015,0,0,0,23,0Z" transform="translate(24 101)" fill="#4b456e"/>
    <path id="Path-4" data-name="Path" d="M3.75,3.25A.25.25,0,0,0,4,3V1A1,1,0,0,0,3,0H1A1,1,0,0,0,0,1V3a.25.25,0,0,0,.25.25Z" transform="translate(25 96.5)" fill="#4b456e"/>
    <path id="Path-5" data-name="Path" d="M3.75,8.25A.25.25,0,0,0,4,8V1A1,1,0,0,0,3,0H1A1,1,0,0,0,0,1V8a.25.25,0,0,0,.25.25Z" transform="translate(31 91.5)" fill="#4b456e"/>
    <path id="Path-6" data-name="Path" d="M3.75,6.25A.25.25,0,0,0,4,6V1A1,1,0,0,0,3,0H1A1,1,0,0,0,0,1V6a.25.25,0,0,0,.25.25Z" transform="translate(37 93.5)" fill="#4b456e"/>
  </g>
</svg>
