<svg xmlns="http://www.w3.org/2000/svg" width="22.646" height="22.646" viewBox="0 0 22.646 22.646">
  <g id="support-16" transform="translate(28.964 6.964)">
    <path id="Path_1" data-name="Path 1" d="M25.646,14.323A11.323,11.323,0,1,0,14.323,25.646,11.336,11.336,0,0,0,25.646,14.323Zm-5.622-1.618h4.4a10.257,10.257,0,0,1,.14,1.618,10.193,10.193,0,0,1-.141,1.618h-4.4a5.8,5.8,0,0,0,0-3.235Zm-5.7,6.47a4.853,4.853,0,1,1,4.853-4.853A4.858,4.858,0,0,1,14.323,19.176ZM15.941,4.219v4.4a5.8,5.8,0,0,0-3.235,0v-4.4a10.193,10.193,0,0,1,1.618-.141A10.193,10.193,0,0,1,15.941,4.219ZM8.622,15.941h-4.4a10.193,10.193,0,0,1-.141-1.618,10.193,10.193,0,0,1,.141-1.618h4.4a5.8,5.8,0,0,0,0,3.235Zm4.084,8.486v-4.4a5.8,5.8,0,0,0,3.235,0v4.4a10.257,10.257,0,0,1-1.618.14A10.193,10.193,0,0,1,12.706,24.427Z" transform="translate(-31.964 -9.964)" fill="#4b456e"/>
  </g>
</svg>
